<?xml version="1.0" encoding="UTF-8"?><svg id="Layer_1" xmlns="http://www.w3.org/2000/svg" viewBox="0 0 1140.73 344.57"><defs><style>.cls-1{fill:#ffb800;}</style></defs><path class="cls-1" d="M379.93,8.31c10.92,.32,20.96,.52,30.14,.59,9.17,.08,18.27,.12,27.29,.12s18-.04,26.93-.12c8.94-.08,17.44-.27,25.51-.59l-1.42,12.1-26.34,7.36c-3.96,1.11-7.36,2.61-10.21,4.51-2.85,1.9-5.34,4.03-7.47,6.41s-4.03,4.91-5.7,7.59c-1.66,2.69-3.2,5.38-4.63,8.07l-150.93,286.19-28.95,2.61-25.63-192.93-2.85-27.76-14.24,27.76-102.52,190.32-27.76,2.61L43.43,57.9c-.63-4.43-1.23-8.34-1.78-11.75-.56-3.4-1.42-6.37-2.61-8.9-1.19-2.53-2.85-4.63-4.98-6.29s-5.1-2.97-8.9-3.92L0,20.41,1.66,8.31c12.97,.32,25.71,.52,38.21,.59,12.5,.08,24.52,.12,36.07,.12,21.83,0,46.51-.24,74.04-.71l-1.19,12.1-23.02,6.64c-3.32,1.11-6.05,2.53-8.19,4.27-2.14,1.74-3.2,5.14-3.2,10.2,0,2.53,.24,6.17,.71,10.92s1.1,10.6,1.9,17.56l16.61,134.79,2.85,30.14,15.42-30.14L257.24,7.83l24.21-2.14,24.68,198.86,3.08,30.38,14.71-30.38,68.34-133.6c4.75-9.33,8.58-17.04,11.51-23.14,2.92-6.09,4.39-10.48,4.39-13.17,0-3.32-2.69-5.77-8.07-7.36l-22.31-6.41,2.14-12.58Z"/><path class="cls-1" d="M464.17,127.67c28.32-7.27,51.34-10.92,69.06-10.92,10.6,0,18.87,1.86,24.8,5.58,5.93,3.72,8.9,9.53,8.9,17.44,0,3.32-.32,6.57-.95,9.73l-31.09,149.5c-.79,4.12-1.19,7.12-1.19,9.02,0,6.33,2.61,10.48,7.83,12.46,5.22,1.98,14.87,2.97,28.95,2.97l-1.42,11.15c-27.05,6.64-48.89,9.97-65.5,9.97-11.71,0-20.85-2.29-27.41-6.88-6.57-4.59-9.85-11.55-9.85-20.88,0-4.43,.63-9.97,1.9-16.61l28.48-137.64c1.26-6.33,1.9-10.44,1.9-12.34,0-4.27-1.82-7.27-5.46-9.02-3.64-1.74-13.76-2.61-30.38-2.61l1.42-10.92Zm119.37-94.45c0,10.76-3.32,19.5-9.97,26.22-6.64,6.73-14.95,10.09-24.92,10.09s-17.64-3.16-23.97-9.49c-6.33-6.33-9.49-14.39-9.49-24.21,0-11.07,3.32-19.81,9.97-26.22s15.03-9.61,25.16-9.61,17.6,2.97,23.85,8.9c6.25,5.93,9.37,14.04,9.37,24.32Z"/><path class="cls-1" d="M753.21,75.94l-35.6,187.71c-3.32,17.56-6.49,34.96-9.49,52.21h95.16l43.43-68.11,14.95-2.14-21.59,93.74-1.66,1.66c-35.91-.47-72.14-.71-108.69-.71h-60.04c-23.57,0-48.09,.24-73.56,.71l1.42-12.1,32.04-8.78c4.43-1.11,7.12-3.56,8.07-7.36,1.26-6.33,2.69-13.41,4.27-21.24,1.58-7.83,3.32-16.49,5.22-25.98l35.83-188.66c1.58-8.07,2.93-15.34,4.03-21.83,1.11-6.48,2.05-12.34,2.85-17.56,.79-4.11-.56-6.8-4.03-8.07l-31.09-9.25,2.14-12.1c27.05,.63,51.97,.95,74.75,.95s46.12-.32,71.43-.95l-1.66,12.1-32.51,8.78c-3.96,.95-6.41,3.4-7.36,7.36-1.42,5.54-3.17,13.61-5.22,24.21-2.06,10.6-3.08,15.74-3.08,15.42Z"/><path class="cls-1" d="M1032.28,75.94l-35.6,187.71c-3.32,17.56-6.49,34.96-9.49,52.21h95.16l43.43-68.11,14.95-2.14-21.59,93.74-1.66,1.66c-35.91-.47-72.14-.71-108.69-.71h-60.04c-23.57,0-48.09,.24-73.56,.71l1.42-12.1,32.04-8.78c4.43-1.11,7.12-3.56,8.07-7.36,1.26-6.33,2.69-13.41,4.27-21.24,1.58-7.83,3.32-16.49,5.22-25.98l35.83-188.66c1.58-8.07,2.93-15.34,4.03-21.83,1.11-6.48,2.05-12.34,2.85-17.56,.79-4.11-.56-6.8-4.03-8.07l-31.09-9.25,2.14-12.1c27.05,.63,51.97,.95,74.75,.95s46.12-.32,71.43-.95l-1.66,12.1-32.51,8.78c-3.96,.95-6.41,3.4-7.36,7.36-1.42,5.54-3.17,13.61-5.22,24.21-2.06,10.6-3.08,15.74-3.08,15.42Z"/></svg>